<?xml version="1.0" encoding="UTF-8" standalone="no"?>
<svg
   width="210mm"
   height="297mm"
   viewBox="0 0 210 297"
   version="1.1"
   id="svg8"
   inkscape:version="1.2.2 (1:1.2.2+202212051552+b0a8486541)"
   sodipodi:docname="ob2_print.svg"
   xmlns:inkscape="http://www.inkscape.org/namespaces/inkscape"
   xmlns:sodipodi="http://sodipodi.sourceforge.net/DTD/sodipodi-0.dtd"
   xmlns="http://www.w3.org/2000/svg"
   xmlns:svg="http://www.w3.org/2000/svg"
   xmlns:rdf="http://www.w3.org/1999/02/22-rdf-syntax-ns#"
   xmlns:cc="http://creativecommons.org/ns#"
   xmlns:dc="http://purl.org/dc/elements/1.1/">
  <defs
     id="defs2" />
  <sodipodi:namedview
     id="base"
     pagecolor="#ffffff"
     bordercolor="#666666"
     borderopacity="1.0"
     inkscape:pageopacity="0.0"
     inkscape:pageshadow="2"
     inkscape:zoom="0.20726705"
     inkscape:cx="786.42504"
     inkscape:cy="200.22478"
     inkscape:document-units="mm"
     inkscape:current-layer="layer1"
     inkscape:document-rotation="0"
     showgrid="false"
     inkscape:window-width="2486"
     inkscape:window-height="1376"
     inkscape:window-x="74"
     inkscape:window-y="27"
     inkscape:window-maximized="1"
     inkscape:showpageshadow="2"
     inkscape:pagecheckerboard="0"
     inkscape:deskcolor="#d1d1d1" />
  <metadata
     id="metadata5">
    <rdf:RDF>
      <cc:Work
         rdf:about="">
        <dc:format>image/svg+xml</dc:format>
        <dc:type
           rdf:resource="http://purl.org/dc/dcmitype/StillImage" />
        <dc:title />
      </cc:Work>
    </rdf:RDF>
  </metadata>
  <g
     inkscape:label="Layer 1"
     inkscape:groupmode="layer"
     id="layer1">
    <g
       aria-label="print"
       id="text835"
       style="font-style:normal;font-variant:normal;font-weight:normal;font-stretch:normal;font-size:103.491px;line-height:1.25;font-family:Uroob;-inkscape-font-specification:'Uroob, Normal';font-variant-ligatures:normal;font-variant-caps:normal;font-variant-numeric:normal;font-variant-east-asian:normal;letter-spacing:0px;word-spacing:0px;fill:#000000;fill-opacity:1;stroke:none;stroke-width:0.264583"
       transform="translate(-203.13665,-22.832684)">
      <path
         d="m 246.2289,92.987286 q 3.28463,-2.375038 7.32724,-2.375038 h 3.53729 q 6.41766,0 10.25815,3.688888 3.84048,3.638356 3.84048,10.207604 v 20.21309 q 0,10.56134 -7.12511,13.84596 -2.4761,1.11172 -5.96286,1.11172 h -5.5586 q -3.28463,0 -5.5586,-2.4761 v 24.7105 h -8.74216 l 0.0505,-71.301662 h 7.93364 z m 16.32207,31.077614 v -18.34337 q 0,-3.94155 -0.85906,-5.2554 -1.56651,-2.425573 -5.20487,-2.425573 h -4.34581 q -1.56652,0 -2.82983,0.808524 -2.32451,1.414919 -2.32451,2.930899 v 25.41795 q 0,1.51598 1.31385,2.7793 2.37504,2.22344 3.84049,2.22344 h 4.34581 q 5.05327,0 5.81126,-5.00274 0.25267,-1.46545 0.25267,-3.13303 z"
         style="font-style:normal;font-variant:normal;font-weight:normal;font-stretch:normal;font-size:103.491px;font-family:Uroob;-inkscape-font-specification:'Uroob, Normal';font-variant-ligatures:normal;font-variant-caps:normal;font-variant-numeric:normal;font-variant-east-asian:normal;stroke-width:0.264583"
         id="path845" />
      <path
         d="m 298.73239,97.990025 -5.1038,-0.05053 q -6.36713,0 -8.28737,4.598475 -0.65692,1.56651 -0.65692,3.58782 v 33.60426 h -8.6411 l -0.0505,-44.771985 q -2.22344,0 -2.22344,-1.66758 v -2.930897 h 9.95494 v 4.598477 q 0.70746,-2.021309 2.57717,-3.335159 1.86971,-1.313851 3.99209,-1.313851 h 8.43896 z"
         style="font-style:normal;font-variant:normal;font-weight:normal;font-stretch:normal;font-size:103.491px;font-family:Uroob;-inkscape-font-specification:'Uroob, Normal';font-variant-ligatures:normal;font-variant-caps:normal;font-variant-numeric:normal;font-variant-east-asian:normal;stroke-width:0.264583"
         id="path847" />
      <path
         d="m 308.13147,75.755631 q 5.5586,0 5.5586,5.659663 0,5.710197 -5.5586,5.710197 -2.72876,0 -4.19421,-1.465449 -1.46545,-1.515981 -1.46545,-4.244748 0,-2.728766 1.46545,-4.194215 1.46545,-1.465448 4.19421,-1.465448 z m 4.24475,63.772289 h -8.69163 V 90.410117 h 8.69163 z"
         style="font-style:normal;font-variant:normal;font-weight:normal;font-stretch:normal;font-size:103.491px;font-family:Uroob;-inkscape-font-specification:'Uroob, Normal';font-variant-ligatures:normal;font-variant-caps:normal;font-variant-numeric:normal;font-variant-east-asian:normal;stroke-width:0.264583"
         id="path849" />
      <path
         d="m 324.95887,93.44208 q 2.9309,-2.930897 5.91233,-2.930897 h 8.59056 q 4.39634,0 7.52937,2.98143 3.2341,2.98143 3.2341,7.428307 v 38.80913 h -8.6411 V 102.5885 q 0,-1.92024 -1.11172,-3.234092 -1.06118,-1.364383 -3.13303,-1.364383 h -7.37777 q -2.98143,0 -3.78996,3.688885 -0.25266,1.01066 -0.25266,1.92025 v 36.13089 h -8.64109 l -0.0505,-49.218867 h 7.73151 z"
         style="font-style:normal;font-variant:normal;font-weight:normal;font-stretch:normal;font-size:103.491px;font-family:Uroob;-inkscape-font-specification:'Uroob, Normal';font-variant-ligatures:normal;font-variant-caps:normal;font-variant-numeric:normal;font-variant-east-asian:normal;stroke-width:0.264583"
         id="path851" />
      <path
         d="m 367.30528,129.32031 q 0,3.73942 4.04262,3.73942 4.09314,0 4.54794,-4.24475 h 1.86971 v 9.14642 q -3.33516,3.03196 -7.78204,3.03196 -8.3379,0 -10.9656,-6.26605 -0.85905,-2.07184 -0.85905,-4.80061 V 99.657604 h -3.68889 v -7.63044 h 3.68889 v -9.651748 h 9.14642 v 9.651748 h 6.97351 v 7.63044 h -6.97351 z"
         style="font-style:normal;font-variant:normal;font-weight:normal;font-stretch:normal;font-size:103.491px;font-family:Uroob;-inkscape-font-specification:'Uroob, Normal';font-variant-ligatures:normal;font-variant-caps:normal;font-variant-numeric:normal;font-variant-east-asian:normal;stroke-width:0.264583"
         id="path853" />
    </g>
    <g
       id="g1094"
       inkscape:export-xdpi="200"
       inkscape:export-ydpi="200"
       transform="translate(-203.13665,-22.832684)">
      <path
         id="path1028"
         style="color:#000000;font-style:normal;font-variant:normal;font-weight:normal;font-stretch:normal;font-size:103.491px;line-height:1.25;font-family:Uroob;-inkscape-font-specification:'Uroob, Normal';font-variant-ligatures:normal;font-variant-position:normal;font-variant-caps:normal;font-variant-numeric:normal;font-variant-alternates:normal;font-variant-east-asian:normal;font-feature-settings:normal;font-variation-settings:normal;text-indent:0;text-align:start;text-decoration:none;text-decoration-line:none;text-decoration-style:solid;text-decoration-color:#000000;letter-spacing:0px;word-spacing:0px;text-transform:none;writing-mode:lr-tb;direction:ltr;text-orientation:mixed;dominant-baseline:auto;baseline-shift:baseline;text-anchor:start;white-space:normal;shape-padding:0;shape-margin:0;inline-size:0;clip-rule:nonzero;display:inline;overflow:visible;visibility:visible;opacity:1;isolation:auto;mix-blend-mode:normal;color-interpolation:sRGB;color-interpolation-filters:linearRGB;solid-color:#000000;solid-opacity:1;vector-effect:none;fill:#808000;fill-opacity:1;fill-rule:nonzero;stroke:#4d4d4d;stroke-width:40;stroke-linecap:round;stroke-linejoin:round;stroke-miterlimit:4;stroke-dasharray:none;stroke-dashoffset:0;stroke-opacity:1;paint-order:normal;color-rendering:auto;image-rendering:auto;shape-rendering:auto;text-rendering:auto;enable-background:accumulate;stop-color:#000000;stop-opacity:1"
         d="m 1164.5898,696.60742 c -7.7706,0 -14.595,2.20833 -19.3847,6.99805 -4.7897,4.78968 -7.0059,11.61995 -7.0059,19.39062 0,7.77071 2.2109,14.62187 6.9453,19.51953 l 0.031,0.0293 0.029,0.0312 c 4.7897,4.78968 11.6141,7.00391 19.3847,7.00391 7.8591,0 14.6782,-2.11743 19.3418,-6.9082 4.6636,-4.79082 6.6719,-11.66868 6.6719,-19.67383 0,-7.94873 -2.0183,-14.79284 -6.6875,-19.54688 -4.6691,-4.754 -11.4747,-6.84375 -19.3262,-6.84375 z m 184.0821,25.01758 v 36.48047 h -13.9453 v 38.83594 h 13.9453 v 109.40625 c 0,7.40031 1.161,14.11881 3.623,20.05664 l 0.01,0.008 0.01,0.008 c 7.3504,17.52779 23.7953,26.75196 46.0567,26.75196 12.3411,0 23.5534,-4.37227 32.7754,-12.75586 l 1.6308,-1.49024 v -41.78125 h -16.5566 l -0.4805,4.46485 c -0.4883,4.55779 -1.8248,7.25736 -3.5957,8.91015 -1.7709,1.65283 -4.3286,2.66406 -8.6211,2.66406 -4.3222,0 -6.7357,-0.97197 -8.0625,-2.19921 -1.3267,-1.22726 -2.2129,-3.12147 -2.2129,-6.93165 V 796.94141 h 26.3536 v -38.83594 h -26.3536 V 721.625 Z m -251.502,29.98438 c -6.3794,0 -12.5197,2.0528 -17.959,5.875 -0.7233,0.5083 -1.1977,1.22003 -1.8691,1.77343 v -7.45703 h -47.6191 v 16.07813 c 0,3.21199 1.4151,6.71416 4.0957,8.72461 1.2425,0.93191 2.8768,0.79875 4.3125,1.19726 l 0.1914,170.5957 h 42.6523 v -132.0039 c 0,-4.55142 0.7312,-8.38711 2.0899,-11.62696 l 0.01,-0.008 c 4.0805,-9.77159 11.8671,-14.3108 26.7012,-14.3125 l 24.293,0.24414 v -5.04883 -34.03124 z m 45.6133,0.38281 v 195.64258 h 42.8516 v -5.00391 -190.63867 z m 51.1777,0.38476 0.2071,196.01953 h 42.6523 V 806.83984 c 0,-1.82891 0.2537,-3.84077 0.8047,-6.04492 l 0.016,-0.0742 0.024,-0.0664 c 0.881,-4.01968 2.2569,-6.53379 3.705,-7.94336 1.4482,-1.40958 3.0035,-2.07422 5.7286,-2.07422 h 27.8886 c 4.1229,0 6.185,1.03349 7.8907,3.22656 l 0.066,0.082 0.066,0.0801 c 2.0253,2.39354 3.0195,5.1187 3.0195,8.99219 v 145.3789 h 42.6602 V 796.7207 c 0,-12.39666 -4.7659,-23.36595 -13.7969,-31.71289 -8.7378,-8.30781 -19.6882,-12.63086 -31.8887,-12.63086 h -32.4668 c -6.0285,0 -11.7724,2.58193 -17.3476,6.21485 v -6.21485 z m -258.32809,0.375 -39.98828,0.002 -0.19922,279.48439 h 43.05078 v -88.69338 c 4.88871,2.76212 10.15982,4.65821 16.00391,4.6582 h 21.00977 c 9.31691,0 17.54882,-1.47436 24.58793,-4.63476 l 0.023,-0.0156 0.023,-0.008 c 19.8034,-9.12918 29.8379,-29.13349 29.8379,-56.86914 V 810.2793 c 0,-17.51437 -5.3045,-31.98788 -16.0566,-42.1875 l -0.01,-0.008 c -10.6796,-10.25385 -25.10021,-15.33203 -42.22464,-15.33203 h -13.36719 c -8.11578,0 -15.60701,2.38698 -22.69336,5.87696 z m 17.33985,38.07617 v 0.002 h 16.42382 c 8.05641,0 12.48264,2.24921 15.47266,6.8789 l 0.008,0.0156 0.008,0.008 c 0.91128,1.3937 2.43554,7.5646 2.43554,17.13281 v 69.32422 c 0,3.94923 -0.30204,7.6107 -0.88476,10.99024 l -0.008,0.0527 -0.008,0.0508 c -0.83165,5.48912 -2.66768,8.92431 -5.24219,11.14063 -2.5745,2.21631 -6.23993,3.51953 -11.78125,3.51953 h -16.42382 c -1.1607,0 -5.47007,-1.80721 -11.0586,-7.02734 -2.57718,-2.48331 -3.41797,-4.51647 -3.41797,-6.88672 v -96.06836 c 0,-1.26422 1.20714,-3.65192 6.38672,-6.80469 l 0.043,-0.0312 0.0527,-0.0293 c 2.39281,-1.53139 4.90721,-2.26757 7.99414,-2.26758 z"
         transform="scale(0.26458333)" />
      <path
         id="path856"
         style="font-style:normal;font-variant:normal;font-weight:normal;font-stretch:normal;font-size:103.491px;line-height:1.25;font-family:Uroob;-inkscape-font-specification:'Uroob, Normal';font-variant-ligatures:normal;font-variant-caps:normal;font-variant-numeric:normal;font-variant-east-asian:normal;letter-spacing:0px;word-spacing:0px;fill:#ed6767;fill-opacity:1;stroke:#ffffff;stroke-width:10;stroke-miterlimit:4;stroke-dasharray:none;paint-order:stroke fill markers"
         d="m 1164.5918,701.60352 c -6.8756,0 -12.161,1.84659 -15.8535,5.53906 -3.6925,3.69247 -5.5371,8.9779 -5.5371,15.85351 0,6.87564 1.8446,12.22318 5.5371,16.04297 3.6925,3.69247 8.9779,5.53711 15.8535,5.53711 14.0059,0 21.0078,-7.19217 21.0078,-21.58008 0,-14.26056 -7.0019,-21.39257 -21.0078,-21.39257 z m 189.0801,25.02148 v 36.47852 h -13.9434 v 28.83984 h 13.9434 V 906.3457 c 0,6.87564 1.0815,12.92415 3.2461,18.14453 6.6209,15.78848 20.4364,23.68164 41.4453,23.68165 11.2047,-10e-6 21.0085,-3.81941 29.4121,-11.45899 v -34.56836 h -7.0664 c -1.146,10.69543 -6.876,16.04297 -17.1895,16.04297 -10.1861,0 -15.2793,-4.7126 -15.2793,-14.13477 V 791.94336 h 26.3575 v -28.83984 h -26.3575 V 726.625 Z m -256.5,29.98438 c -5.3478,0 -10.3768,1.6563 -15.0879,4.96679 -4.7111,3.31049 -7.9577,7.51048 -9.7402,12.60352 v -17.37891 h -37.625 v 11.07813 c 0,4.20177 2.7999,6.30078 8.4023,6.30078 l 0.1914,169.21875 h 32.6602 V 816.38867 c 0,-5.09306 0.8271,-9.61148 2.4824,-13.55859 4.8384,-11.58672 15.2791,-17.38086 31.3222,-17.38086 l 19.2891,0.1914 0,-29.03124 z m 50.6133,0.38281 v 185.64062 h 32.8496 V 756.99219 Z m 51.1836,0.38086 0.1914,186.02539 h 32.6601 v -136.5586 c 0,-2.29188 0.3185,-4.71126 0.9551,-7.25781 2.0372,-9.29484 6.8119,-13.9414 14.3242,-13.94141 h 27.8848 c 5.2204,0 9.166,1.71842 11.8398,5.15626 2.8012,3.31048 4.2031,7.38425 4.2031,12.22265 v 140.37891 h 32.6582 V 796.7168 c 0,-11.20474 -4.0737,-20.56196 -12.2226,-28.07422 -7.8943,-7.51227 -17.3796,-11.26953 -28.457,-11.26953 h -32.4688 c -7.5123,0 -14.9607,3.69318 -22.3457,11.07812 v -11.07812 z m -298.32622,0.38281 -0.18946,269.48634 h 33.04102 v -93.39454 c 5.72969,6.23899 12.73158,9.35937 21.00781,9.35937 h 21.00977 c 8.78554,0 16.29812,-1.40194 22.53711,-4.20312 17.95307,-8.27621 26.92967,-25.71883 26.92967,-52.33008 v -76.39649 c 0,-16.55244 -4.8388,-29.41258 -14.5156,-38.58007 -9.6768,-9.29485 -22.60101,-13.94141 -38.77149,-13.94141 h -13.36914 c -10.18611,0 -19.41713,2.99221 -27.69336,8.97656 v -8.97656 z m 52.33203,28.07422 h 16.42578 c 9.16752,0 15.72476,3.05629 19.67188,9.16797 2.16456,3.31049 3.24609,9.93181 3.24609,19.86328 v 69.33008 c 0,4.20177 -0.31843,8.14737 -0.95508,11.83984 -1.90989,12.60533 -9.23024,18.9082 -21.96289,18.9082 h -16.42578 c -3.69247,0 -8.53127,-2.79997 -14.51563,-8.40234 -3.31048,-3.18317 -4.96484,-6.68607 -4.96484,-10.50586 v -96.06641 c 0,-3.81979 2.92812,-7.51297 8.78516,-11.07812 3.18314,-2.03722 6.74817,-3.05664 10.69531,-3.05664 z"
         transform="scale(0.26458333)" />
    </g>
  </g>
</svg>
